<?xml version="1.0" encoding="UTF-8"?>
<!DOCTYPE svg PUBLIC "-//W3C//DTD SVG 1.1//EN" "http://www.w3.org/Graphics/SVG/1.1/DTD/svg11.dtd">
<!-- Creator: CorelDRAW X7 -->
<svg xmlns="http://www.w3.org/2000/svg" xml:space="preserve" width="4.1425mm" height="4.1425mm" version="1.1" style="shape-rendering:geometricPrecision; text-rendering:geometricPrecision; image-rendering:optimizeQuality; fill-rule:evenodd; clip-rule:evenodd"
viewBox="0 0 366 366"
 xmlns:xlink="http://www.w3.org/1999/xlink">
 <defs>
  <style type="text/css">
   <![CDATA[
    .fil0 {fill:white}
   ]]>
  </style>
 </defs>
 <g id="Capa_x0020_1">
  <metadata id="CorelCorpID_0Corel-Layer"/>
  <g id="_578272256">
   <path class="fil0" d="M213 364c-2,0 -4,0 -5,0 1,0 3,0 5,0z"/>
   <path class="fil0" d="M216 363c-1,0 -1,0 -2,0 1,0 1,0 2,0z"/>
   <path class="fil0" d="M204 365c-2,0 -4,0 -6,0 2,0 4,0 6,0z"/>
   <path class="fil0" d="M207 364c-1,1 -1,1 -2,1 1,0 1,0 2,-1z"/>
   <path class="fil0" d="M221 362c0,0 -1,0 -2,0 1,0 2,0 2,0z"/>
   <path class="fil0" d="M234 359c-1,0 -2,0 -2,0 0,0 1,0 2,0z"/>
   <path class="fil0" d="M230 360c-1,0 -1,0 -2,0 1,0 1,0 2,0z"/>
   <path class="fil0" d="M225 361c-1,0 -1,0 -2,1 1,-1 1,-1 2,-1z"/>
   <path class="fil0" d="M198 365c-1,0 -2,1 -3,1 1,0 2,-1 3,-1z"/>
   <path class="fil0" d="M366 183c0,-101 -82,-183 -183,-183 -101,0 -183,82 -183,183 0,101 82,183 183,183 1,0 2,0 3,0l0 -142 -39 0 0 -46 39 0 0 -34c0,-39 24,-60 59,-60 17,0 31,1 35,1l0 41 -24 0c-19,0 -22,9 -22,23l0 29 45 0 -6 46 -39 0 0 135c76,-22 132,-92 132,-176z"/>
   <path class="fil0" d="M195 366c-2,0 -4,0 -6,0 2,0 4,0 6,0z"/>
   <path class="fil0" d="M189 366c-1,0 -2,0 -3,0 1,0 2,0 3,0z"/>
  </g>
 </g>
</svg>
