<?xml version="1.0" encoding="UTF-8"?>
<!DOCTYPE svg PUBLIC "-//W3C//DTD SVG 1.1//EN" "http://www.w3.org/Graphics/SVG/1.1/DTD/svg11.dtd">
<!-- Creator: CorelDRAW X7 -->
<svg xmlns="http://www.w3.org/2000/svg" xml:space="preserve" width="2.8441mm" height="2.1302mm" version="1.1" style="shape-rendering:geometricPrecision; text-rendering:geometricPrecision; image-rendering:optimizeQuality; fill-rule:evenodd; clip-rule:evenodd"
viewBox="0 0 231 173"
 xmlns:xlink="http://www.w3.org/1999/xlink">
 <defs>
  <style type="text/css">
   <![CDATA[
    .fil0 {fill:white}
   ]]>
  </style>
 </defs>
 <g id="Capa_x0020_1">
  <metadata id="CorelCorpID_0Corel-Layer"/>
  <g id="_576215352">
   <path class="fil0" d="M210 0l-189 0c-11,0 -21,10 -21,21 0,12 10,22 21,22l189 0c12,0 21,-10 21,-22 0,-11 -9,-21 -21,-21z"/>
   <path class="fil0" d="M210 65l-189 0c-11,0 -21,10 -21,22 0,11 10,21 21,21l189 0c12,0 21,-10 21,-21 0,-12 -9,-22 -21,-22z"/>
   <path class="fil0" d="M210 131l-189 0c-11,0 -21,9 -21,21 0,12 10,21 21,21l189 0c12,0 21,-9 21,-21 0,-12 -9,-21 -21,-21z"/>
  </g>
 </g>
</svg>
