<?xml version="1.0" encoding="UTF-8"?>
<!DOCTYPE svg PUBLIC "-//W3C//DTD SVG 1.1//EN" "http://www.w3.org/Graphics/SVG/1.1/DTD/svg11.dtd">
<!-- Creator: CorelDRAW X7 -->
<svg xmlns="http://www.w3.org/2000/svg" xml:space="preserve" width="4.1425mm" height="4.1425mm" version="1.1" style="shape-rendering:geometricPrecision; text-rendering:geometricPrecision; image-rendering:optimizeQuality; fill-rule:evenodd; clip-rule:evenodd"
viewBox="0 0 295 295"
 xmlns:xlink="http://www.w3.org/1999/xlink">
 <defs>
  <style type="text/css">
   <![CDATA[
    .fil0 {fill:white}
   ]]>
  </style>
 </defs>
 <g id="Capa_x0020_1">
  <metadata id="CorelCorpID_0Corel-Layer"/>
  <g id="_571579160">
   <path class="fil0" d="M176 147c0,16 -13,29 -29,29 -15,0 -28,-13 -28,-29 0,-15 13,-28 28,-28 16,0 29,13 29,28z"/>
   <path class="fil0" d="M213 97c-1,-3 -3,-7 -6,-9 -3,-3 -6,-5 -10,-7 -3,-1 -7,-2 -15,-3 -9,0 -12,0 -35,0 -22,0 -25,0 -34,0 -8,1 -13,2 -16,3 -3,2 -7,4 -9,7 -3,2 -5,6 -7,9 -1,3 -2,8 -3,16 0,9 0,12 0,34 0,23 0,26 0,35 1,8 2,12 3,15 2,4 4,7 7,10 2,3 6,5 9,6 3,1 8,3 16,3 9,1 12,1 34,1 23,0 26,0 35,-1 8,0 12,-2 15,-3 8,-3 13,-8 16,-16 1,-3 3,-7 3,-15 1,-9 1,-12 1,-35 0,-22 0,-25 -1,-34 0,-8 -2,-13 -3,-16zm-66 94c-24,0 -43,-20 -43,-44 0,-24 19,-43 43,-43 24,0 44,19 44,43 0,24 -20,44 -44,44zm45 -79c-5,0 -10,-4 -10,-10 0,-5 5,-10 10,-10 6,0 11,5 11,10 0,6 -5,10 -11,10z"/>
   <path class="fil0" d="M147 0c-81,0 -147,66 -147,147 0,82 66,148 147,148 82,0 148,-66 148,-148 0,-81 -66,-147 -148,-147zm84 182c0,9 -1,15 -4,21 -4,11 -13,20 -24,24 -6,3 -12,4 -21,4 -9,1 -12,1 -35,1 -23,0 -26,0 -35,-1 -9,0 -15,-1 -20,-4 -6,-2 -11,-5 -15,-9 -4,-4 -8,-10 -10,-15 -2,-6 -3,-12 -4,-21 0,-9 0,-12 0,-35 0,-23 0,-26 0,-35 1,-9 2,-15 4,-20 2,-6 6,-11 10,-15 4,-4 9,-8 15,-10 5,-2 11,-3 20,-4 9,0 12,0 35,0 23,0 26,0 35,0 9,1 15,2 21,4 5,2 11,6 15,10 4,4 7,9 9,15 3,5 4,11 4,20 1,9 1,12 1,35 0,23 0,26 -1,35z"/>
  </g>
 </g>
</svg>
