<?xml version="1.0" encoding="UTF-8"?>
<!DOCTYPE svg PUBLIC "-//W3C//DTD SVG 1.1//EN" "http://www.w3.org/Graphics/SVG/1.1/DTD/svg11.dtd">
<!-- Creator: CorelDRAW X7 -->
<svg xmlns="http://www.w3.org/2000/svg" xml:space="preserve" width="43.1544mm" height="23.7852mm" version="1.1" style="shape-rendering:geometricPrecision; text-rendering:geometricPrecision; image-rendering:optimizeQuality; fill-rule:evenodd; clip-rule:evenodd"
viewBox="0 0 14360 7915"
 xmlns:xlink="http://www.w3.org/1999/xlink">
 <defs>
  <style type="text/css">
   <![CDATA[
    .fil0 {fill:#FEFEFE;fill-rule:nonzero}
    .fil5 {fill:black;fill-rule:nonzero}
    .fil4 {fill:#BF1F26;fill-rule:nonzero}
    .fil1 {fill:#D6AE2D;fill-rule:nonzero}
    .fil2 {fill:white;fill-rule:nonzero}
    .fil3 {fill:white;fill-rule:nonzero}
   ]]>
  </style>
 </defs>
 <g id="Capa_x0020_1">
  <metadata id="CorelCorpID_0Corel-Layer"/>
  <g id="_591296592">
   <g>
    <polygon class="fil0" points="14360,6804 0,6804 0,6692 14360,6692 "/>
   </g>
   <g>
    <path class="fil0" d="M9303 2131c0,1178 -955,2132 -2132,2132 -1177,0 -2131,-954 -2131,-2132 0,-1177 954,-2131 2131,-2131 1177,0 2132,954 2132,2131z"/>
   </g>
   <g>
    <g>
     <path class="fil1" d="M8726 2144c0,866 -702,1568 -1568,1568 -866,0 -1568,-702 -1568,-1568 0,-865 702,-1567 1568,-1567 866,0 1568,702 1568,1567z"/>
    </g>
    <g>
     <path class="fil2" d="M7158 3752c-886,0 -1607,-721 -1607,-1608 0,-886 721,-1607 1607,-1607 886,0 1607,721 1607,1607 0,887 -721,1608 -1607,1608zm0 -3136l0 0c-843,0 -1529,686 -1529,1528 0,843 686,1529 1529,1529 843,0 1529,-686 1529,-1529 0,-842 -686,-1528 -1529,-1528z"/>
    </g>
   </g>
   <g>
    <g>
     <path class="fil3" d="M2452 5806l0 236 1 135c0,84 1,146 3,185 92,7 111,11 216,11 71,0 130,-3 178,-10 31,-4 63,-12 98,-25 16,-56 32,-126 48,-211l62 0c-16,139 -25,232 -25,278l2 43c-72,7 -143,10 -212,10l-148 -3c-163,-5 -204,-7 -281,-7 -73,0 -170,2 -292,7l0 -59 29 0c54,0 89,-6 103,-17 14,-10 23,-36 28,-76 4,-40 7,-128 7,-265l0 -524c0,-86 -2,-157 -6,-212 -4,-54 -9,-87 -14,-97 -4,-11 -11,-19 -20,-25 -9,-5 -36,-10 -81,-15l-72 -8 0 -58 101 0 100 3c56,2 98,3 127,3l283 -5 171 -1c59,-1 118,1 177,6 -24,75 -37,172 -39,292l-62 0c0,-70 -4,-128 -11,-175 -74,-28 -165,-42 -274,-42 -86,0 -98,4 -193,12 1,60 0,120 -2,180l-2 148 0 194c63,5 40,7 88,7 151,0 236,-5 256,-16 20,-10 30,-43 30,-98l0 -63 62 0c-4,96 -7,172 -7,229 0,60 3,132 7,213l-62 0 0 -55c0,-60 -12,-97 -36,-111 -24,-14 -108,-20 -251,-20 -53,0 -30,2 -87,6z"/>
    </g>
   </g>
   <g>
    <g>
     <path class="fil3" d="M4517 6430c5,-70 7,-284 7,-405l0 -474c0,-89 0,-177 -2,-265 -1,-37 -4,-62 -11,-76 -6,-13 -16,-25 -28,-36 -12,-11 -108,-17 -130,-17l-45 0 0 -58c61,4 185,6 217,6 34,0 124,-2 164,-6 47,76 192,370 236,444l244 400c88,143 152,243 191,299l0 -612c0,-257 -4,-397 -11,-421 -7,-23 -34,-38 -82,-45l-54 -7 0 -58c76,4 135,6 177,6 44,0 101,-2 171,-6l0 58 -55 0c-44,0 -69,20 -75,60 -5,26 -7,165 -7,418l0 431c0,115 4,213 11,374l-163 0c-10,-7 -683,-1131 -683,-1131l0 662c0,151 2,399 6,459l-78 0z"/>
    </g>
   </g>
   <g>
    <g>
     <path class="fil3" d="M11650 5186c-13,-25 -50,-37 -103,-37l-63 0 0 -59 78 0 86 3c45,2 81,3 106,3 40,0 144,-2 260,-6l164 -3c107,0 188,19 241,57 67,49 100,118 100,206 0,73 -24,137 -71,192 -47,56 -128,101 -242,139 134,9 231,40 290,94 59,55 89,130 89,225 0,122 -50,226 -150,314 -100,88 -227,132 -381,132l-100 -2c-63,-3 -142,-5 -185,-5 -31,0 -73,2 -119,4l0 -1257zm217 467l0 0c32,2 61,3 87,3 125,0 240,-22 294,-67 54,-45 81,-109 81,-194 0,-73 -22,-129 -67,-168 -46,-39 -118,-59 -217,-59 -44,0 -118,5 -169,13 -6,77 -9,195 -9,351l0 121zm0 698l0 0c59,9 107,13 145,13 111,0 223,-30 285,-90 60,-60 91,-141 91,-244 0,-68 -13,-125 -40,-169 -27,-45 -65,-78 -114,-98 -48,-21 -152,-31 -258,-31 -33,0 -69,1 -109,3l0 364 1 93c2,43 3,76 3,99 0,17 -1,37 -4,60z"/>
    </g>
   </g>
   <g>
    <g>
     <path class="fil3" d="M2294 7581l0 183c0,46 4,74 11,83 8,10 30,16 67,18l20 1 0 31 -285 0 0 -31 9 -1c38,-3 60,-9 68,-18 7,-9 10,-36 10,-83l0 -493c0,-46 -3,-74 -10,-83 -8,-9 -30,-15 -68,-17l-9 -1 0 -32 208 0 69 0 32 -1c136,0 204,67 204,200 0,81 -25,142 -74,183 -49,40 -124,61 -223,61l-29 0zm0 -35l0 0 35 0c62,0 109,-17 140,-52 31,-35 46,-87 46,-156 0,-60 -12,-102 -35,-127 -24,-25 -63,-38 -119,-38l-67 0 0 373z"/>
    </g>
    <g>
     <path class="fil3" d="M3067 7915c-101,0 -181,-36 -239,-106 -58,-71 -87,-168 -87,-292 0,-122 29,-219 87,-290 58,-71 138,-106 239,-106 101,0 181,35 239,106 59,71 88,168 88,290 0,124 -29,221 -88,292 -58,70 -138,106 -239,106zm0 -35l0 0c70,0 124,-32 163,-96 40,-64 59,-153 59,-266 0,-114 -19,-203 -59,-267 -39,-64 -93,-96 -163,-96 -69,0 -124,32 -163,96 -39,64 -59,153 -59,267 0,113 20,202 59,266 39,64 94,96 163,96z"/>
    </g>
    <g>
     <path class="fil3" d="M4019 7897l-506 0 0 -31 9 -1c37,-3 60,-9 67,-18 7,-9 11,-36 11,-83l0 -493c0,-46 -4,-74 -11,-83 -7,-9 -30,-15 -67,-17l-9 -1 0 -32 273 0 0 32 -9 1c-38,2 -60,8 -67,17 -7,9 -11,37 -11,83l0 493c0,45 3,72 10,78 6,7 31,11 73,11l72 0c57,0 90,-4 99,-11 8,-7 14,-36 16,-87l1 -11 49 0 0 153z"/>
    </g>
    <g>
     <path class="fil3" d="M4607 7897l-506 0 0 -31 9 -1c38,-3 61,-9 67,-18 8,-9 11,-36 11,-83l0 -493c0,-46 -3,-74 -11,-83 -6,-9 -29,-15 -67,-17l-9 -1 0 -32 274 0 0 32 -9 1c-38,2 -61,8 -68,17 -7,9 -10,37 -10,83l0 493c0,45 3,72 10,78 6,7 30,11 73,11l72 0c57,0 90,-4 99,-11 8,-7 13,-36 16,-87l0 -11 49 0 0 153z"/>
    </g>
    <g>
     <path class="fil3" d="M5046 7915c-101,0 -181,-36 -239,-106 -58,-71 -88,-168 -88,-292 0,-122 30,-219 88,-290 58,-71 138,-106 239,-106 101,0 181,35 239,106 59,71 88,168 88,290 0,124 -29,221 -88,292 -58,70 -138,106 -239,106zm0 -35l0 0c69,0 124,-32 163,-96 39,-64 59,-153 59,-266 0,-114 -20,-203 -59,-267 -39,-64 -94,-96 -163,-96 -69,0 -124,32 -163,96 -39,64 -59,153 -59,267 0,113 20,202 59,266 39,64 94,96 163,96z"/>
    </g>
    <g>
     <path class="fil3" d="M5528 7880l0 -145 49 0 0 9c1,17 1,30 1,38 0,27 11,47 31,61 33,23 70,34 111,34 42,0 74,-13 98,-39 24,-25 35,-61 35,-106 0,-38 -7,-68 -22,-91 -15,-23 -45,-47 -89,-74l-49 -30c-107,-66 -161,-137 -161,-215 0,-58 20,-106 59,-144 38,-38 87,-57 145,-57 26,0 53,2 83,8 29,6 61,14 95,26l0 134 -53 0 0 -9c0,-18 -1,-32 -1,-41 0,-29 -10,-50 -29,-64 -19,-13 -49,-20 -89,-20 -34,0 -62,12 -83,36 -21,24 -32,55 -32,95 0,33 8,61 22,82 15,22 41,45 78,68l50 31c69,42 115,79 139,110 24,31 36,71 36,118 0,63 -22,115 -65,157 -43,42 -98,63 -163,63 -37,0 -73,-3 -106,-9 -32,-6 -63,-14 -90,-26z"/>
    </g>
    <g>
     <path class="fil3" d="M6409 7897l0 -31 9 -1c38,-3 60,-9 67,-18 7,-9 11,-36 11,-83l0 -493c0,-46 -4,-74 -11,-83 -7,-9 -29,-15 -67,-17l-9 -1 0 -32 224 0 73 0 34 0c110,0 194,32 253,94 58,63 87,153 87,270 0,122 -30,218 -90,289 -60,70 -142,106 -246,106l-335 0zm186 -724l0 0 0 591c0,47 5,73 13,79 17,13 50,19 100,19 89,0 156,-29 200,-86 45,-59 68,-145 68,-261 0,-121 -24,-208 -72,-262 -49,-53 -126,-80 -234,-80l-75 0z"/>
    </g>
    <g>
     <path class="fil3" d="M7708 7897l-506 0 0 -31 9 -1c38,-3 60,-9 67,-18 7,-9 10,-36 10,-83l0 -493c0,-46 -3,-74 -10,-83 -7,-9 -29,-15 -67,-17l-9 -1 0 -32 480 0 0 133 -53 0 -1 -10c-2,-47 -5,-72 -9,-76 -4,-4 -30,-6 -76,-6l-154 0 0 303 129 0c28,0 45,-1 52,-5 6,-3 10,-19 12,-48l0 -9 38 0 0 166 -38 0 0 -10c-2,-25 -6,-40 -12,-45 -7,-5 -24,-8 -52,-8l-129 0 0 241c0,40 4,64 13,74 9,10 31,15 68,15l76 0c55,0 87,-3 94,-9 8,-6 13,-32 15,-77l0 -9 53 0 0 139z"/>
    </g>
    <g>
     <path class="fil3" d="M8741 7854c-64,41 -137,61 -222,61 -107,0 -192,-36 -254,-107 -62,-71 -93,-169 -93,-292 0,-125 30,-222 90,-291 59,-70 142,-104 250,-104 55,0 126,12 216,37l0 146 -59 0 -1 -10c0,-11 -1,-21 -1,-31 0,-33 -14,-60 -43,-79 -28,-19 -67,-29 -116,-29 -70,0 -126,32 -168,98 -42,65 -63,153 -63,262 0,110 25,195 74,257 49,61 118,92 206,92 58,0 119,-20 184,-59l0 49z"/>
    </g>
    <g>
     <path class="fil3" d="M9022 7663l-40 101c-15,40 -23,66 -23,80 0,14 20,22 61,22l8 0 0 31 -182 0 0 -31 10 -1c27,-1 43,-5 48,-11 5,-6 19,-36 40,-90l246 -634 33 0 246 638c19,46 32,73 40,82 8,9 23,14 46,15l11 1 0 31 -260 0 0 -31 9 0c44,0 66,-7 66,-21 0,-20 -6,-47 -20,-81l-39 -101 -300 0zm16 -41l0 0 268 0 -133 -345 -135 345z"/>
    </g>
    <g>
     <path class="fil3" d="M9636 7170l0 -32 201 0 209 552 203 -552 177 0 0 32 -9 1c-37,2 -60,8 -67,17 -7,9 -10,37 -10,83l0 493c0,47 3,74 10,83 7,10 30,15 67,18l9 1 0 31 -267 0 0 -31 9 -1c38,-3 61,-8 68,-18 7,-9 10,-36 10,-83l0 -521 -218 593 -35 0 -218 -601 0 529c0,47 3,74 10,83 7,10 30,15 68,18l8 1 0 31 -225 0 0 -31 8 -1c38,-3 61,-8 68,-18 7,-9 10,-36 10,-83l0 -493c0,-46 -3,-74 -10,-83 -7,-9 -30,-15 -68,-17l-8 -1z"/>
    </g>
    <g>
     <path class="fil3" d="M10705 7581l0 183c0,46 3,74 11,83 7,10 30,16 67,18l20 1 0 31 -285 0 0 -31 9 -1c38,-3 60,-8 67,-18 7,-9 11,-36 11,-83l0 -493c0,-46 -4,-74 -11,-83 -7,-9 -29,-15 -67,-17l-9 -1 0 -32 207 0 69 0 33 -1c136,0 203,67 203,200 0,81 -24,142 -73,183 -50,40 -124,61 -223,61l-29 0zm0 -35l0 0 35 0c62,0 109,-17 139,-52 31,-35 47,-87 47,-156 0,-60 -12,-102 -36,-127 -23,-25 -63,-38 -118,-38l-67 0 0 373z"/>
    </g>
    <g>
     <path class="fil3" d="M11478 7915c-101,0 -181,-36 -239,-106 -59,-71 -88,-168 -88,-292 0,-122 29,-219 88,-290 58,-71 138,-106 239,-106 101,0 181,35 239,106 58,71 88,168 88,290 0,124 -30,221 -88,292 -58,70 -138,106 -239,106zm0 -35l0 0c69,0 124,-32 163,-96 39,-64 59,-153 59,-266 0,-114 -20,-203 -59,-267 -39,-64 -94,-96 -163,-96 -69,0 -124,32 -163,96 -39,64 -59,153 -59,267 0,113 20,202 59,266 39,64 94,96 163,96z"/>
    </g>
   </g>
   <g>
    <g>
     <path class="fil3" d="M1428 6427l-450 -779 -198 0 0 788 -241 0 0 -1325c0,-117 -8,-187 -26,-209 -17,-22 -72,-37 -165,-44l-22 -3 0 -54 409 0 206 -5 92 -2c351,0 526,77 526,400 0,270 -115,303 -347,394 0,0 486,823 495,839l-279 0zm-645 -866l0 0 85 0c298,0 447,-15 447,-337 0,-152 -28,-202 -84,-266 -56,-63 -151,-95 -286,-95l-162 0 0 698z"/>
    </g>
   </g>
   <g>
    <g>
     <path class="fil3" d="M9132 4774l-471 0 -7 65 138 26c78,27 52,105 52,105l-537 1468 164 0 183 -511 629 0 190 511 262 0 -603 -1664zm-432 1018l0 0 262 -678 275 678 -537 0z"/>
    </g>
   </g>
   <g>
    <g>
     <path class="fil3" d="M13600 5117l-374 0 -6 52 110 21c62,21 41,83 41,83l-426 1165 130 0 145 -406 500 0 150 406 208 0 -478 -1321zm-343 809l0 0 208 -539 218 539 -426 0z"/>
    </g>
   </g>
   <g>
    <g>
     <path class="fil3" d="M6586 5117l-374 0 -6 52 110 21c62,21 41,83 41,83l-426 1165 130 0 145 -406 500 0 150 406 208 0 -478 -1321zm-343 809l0 0 208 -539 218 539 -426 0z"/>
    </g>
   </g>
   <g>
    <path class="fil3" d="M10102 5141l412 -46 7 1218c0,0 190,72 432,13 0,0 92,-32 99,-177l59 0 -13 269 -800 0 0 -1140c0,0 7,-78 -105,-78l-91 -7 0 -52z"/>
   </g>
   <g>
    <path class="fil3" d="M3836 6444l-220 0 0 -1166c0,0 7,-79 -105,-79l-92 -6 0 -52 417 -46 0 1349z"/>
   </g>
   <g>
    <g>
     <path class="fil4" d="M6577 1240l1031 0c0,0 188,94 201,254l-1057 0c0,0 -87,-175 -175,-254z"/>
    </g>
    <g>
     <path class="fil4" d="M7949 1957c0,0 -75,-112 -105,-9l0 358 103 89 2 -438z"/>
    </g>
    <g>
     <path class="fil2" d="M6787 1581l1188 0c0,0 24,35 -18,70 0,0 -209,166 -209,323 0,0 -37,173 26,428 0,0 131,454 -166,533l-1258 0c0,0 -15,-55 26,-52 0,0 208,-121 236,-428 0,0 -2,-145 -61,-297 0,0 -218,-437 236,-577z"/>
    </g>
    <g>
     <path class="fil5" d="M7560 1793c0,43 -35,78 -79,78 -43,0 -79,-35 -79,-78 0,-43 36,-79 79,-79 44,0 79,36 79,79z"/>
    </g>
   </g>
  </g>
 </g>
</svg>
