<?xml version="1.0" encoding="UTF-8"?>
<!DOCTYPE svg PUBLIC "-//W3C//DTD SVG 1.1//EN" "http://www.w3.org/Graphics/SVG/1.1/DTD/svg11.dtd">
<!-- Creator: CorelDRAW X7 -->
<svg xmlns="http://www.w3.org/2000/svg" xml:space="preserve" width="98.7222mm" height="54.4099mm" version="1.1" style="shape-rendering:geometricPrecision; text-rendering:geometricPrecision; image-rendering:optimizeQuality; fill-rule:evenodd; clip-rule:evenodd"
viewBox="0 0 9872 5441"
 xmlns:xlink="http://www.w3.org/1999/xlink">
 <defs>
  <style type="text/css">
   <![CDATA[
    .fil4 {fill:black;fill-rule:nonzero}
    .fil0 {fill:#103426;fill-rule:nonzero}
    .fil3 {fill:#C02026;fill-rule:nonzero}
    .fil1 {fill:#D7AE2D;fill-rule:nonzero}
    .fil2 {fill:white;fill-rule:nonzero}
   ]]>
  </style>
 </defs>
 <g id="Capa_x0020_1">
  <metadata id="CorelCorpID_0Corel-Layer"/>
  <g id="_262535056">
   <polygon class="fil0" points="9872,4677 0,4677 0,4601 9872,4601 "/>
   <path class="fil0" d="M6395 1465c0,810 -655,1466 -1465,1466 -810,0 -1465,-656 -1465,-1466 0,-809 655,-1465 1465,-1465 810,0 1465,656 1465,1465z"/>
   <path class="fil1" d="M5999 1474c0,595 -483,1078 -1078,1078 -595,0 -1078,-483 -1078,-1078 0,-595 483,-1078 1078,-1078 595,0 1078,483 1078,1078z"/>
   <path class="fil2" d="M4921 424c-579,0 -1051,471 -1051,1050 0,580 472,1051 1051,1051 579,0 1051,-471 1051,-1051 0,-579 -472,-1050 -1051,-1050zm0 2155c-610,0 -1105,-495 -1105,-1105 0,-610 495,-1104 1105,-1104 609,0 1105,494 1105,1104 0,610 -496,1105 -1105,1105z"/>
   <path class="fil0" d="M1685 3991l0 162 1 93c0,58 1,101 2,128 63,4 77,7 150,7 47,0 88,-2 122,-7 20,-2 43,-8 67,-17 11,-39 21,-86 32,-145l44 0c-12,96 -17,159 -17,192l1 29c-50,4 -99,6 -147,6l-101 -2c-112,-3 -140,-4 -193,-4 -50,0 -117,1 -201,4l0 -40 20 0c37,0 61,-4 71,-11 9,-8 16,-25 19,-52 3,-29 4,-89 4,-183l0 -361c0,-59 -1,-106 -4,-145 -3,-38 -6,-60 -9,-67 -3,-7 -7,-12 -13,-16 -6,-4 -25,-7 -56,-12l-50 -5 0 -40 69 0 69 3c39,1 68,2 88,2l194 -4 118 -1c40,0 81,1 122,5 -17,51 -26,118 -28,200l-43 0c0,-48 -2,-87 -7,-120 -50,-19 -113,-28 -188,-28 -60,0 -68,2 -133,8 1,40 0,82 -1,124l-2 100 0 134c44,3 28,5 61,5 104,0 162,-4 176,-11 14,-7 20,-30 20,-68l0 -42 43 0c-3,66 -4,117 -4,157 0,42 1,90 4,146l-43 0 0 -37c0,-42 -8,-67 -24,-76 -16,-11 -74,-15 -173,-15 -36,0 -20,1 -60,4l0 0z"/>
   <path class="fil0" d="M3106 4420c3,-48 5,-195 5,-277l0 -327c0,-61 -1,-121 -2,-182 0,-25 -3,-43 -8,-52 -4,-9 -11,-17 -19,-25 -9,-8 -74,-12 -89,-12l-31 0 0 -40c41,3 127,5 149,5 23,0 85,-2 112,-5 33,53 132,255 163,306l168 275c60,98 104,166 131,205l0 -421c0,-176 -2,-272 -8,-289 -5,-16 -23,-26 -56,-31l-37 -5 0 -40c52,3 92,5 122,5 30,0 69,-2 117,-5l0 40 -38 0c-29,0 -48,15 -52,41 -3,18 -4,114 -4,288l0 296c0,79 2,146 7,257l-111 0c-7,-4 -470,-777 -470,-777l0 455c0,104 1,274 4,315l-53 0 0 0z"/>
   <path class="fil0" d="M8158 4366c40,6 74,9 100,9 76,0 153,-21 195,-62 43,-41 63,-97 63,-167 0,-47 -9,-87 -27,-117 -19,-31 -45,-53 -79,-67 -33,-14 -104,-21 -177,-21 -23,0 -47,1 -75,2l0 249 1 64c1,31 3,53 3,69 0,12 -2,25 -4,41l0 0zm0 -479c22,1 42,2 59,2 87,0 166,-15 204,-47 36,-30 55,-75 55,-133 0,-50 -16,-88 -46,-116 -32,-26 -82,-39 -150,-39 -29,0 -80,2 -115,8 -5,52 -7,134 -7,241l0 84 0 0zm-149 -321c-9,-18 -34,-27 -70,-27l-44 0 0 -40 53 0 60 3c31,1 55,2 72,2 28,0 100,-1 179,-4l113 -3c74,0 129,13 165,39 46,34 69,82 69,142 0,50 -16,94 -48,133 -33,37 -89,69 -167,94 93,6 159,28 200,65 40,38 60,89 60,155 0,84 -33,156 -102,216 -68,60 -156,90 -261,90l-70 -1c-43,-2 -97,-3 -127,-3 -22,0 -50,1 -82,2l0 -863 0 0z"/>
   <path class="fil0" d="M1577 5188l24 0c43,0 75,-12 97,-37 21,-23 31,-58 31,-106 0,-42 -8,-70 -24,-88 -17,-17 -44,-26 -82,-26l-46 0 0 257zm0 23l0 126c0,32 3,51 8,57 5,7 20,11 45,13l15 0 0 22 -196 0 0 -22 6 0c26,-2 41,-6 46,-13 5,-6 8,-24 8,-57l0 -338c0,-32 -3,-52 -8,-58 -5,-6 -20,-10 -46,-11l-6 -1 0 -21 142 0 48 0 22 -1c93,0 140,45 140,137 0,56 -17,97 -51,126 -33,27 -85,41 -153,41l-20 0 0 0z"/>
   <path class="fil0" d="M2109 5418c48,0 84,-23 112,-66 27,-44 40,-106 40,-183 0,-78 -13,-139 -40,-184 -28,-44 -64,-66 -112,-66 -48,0 -85,22 -113,66 -26,45 -39,106 -39,184 0,77 13,139 39,183 28,43 65,66 113,66zm0 23c-70,0 -125,-24 -165,-73 -40,-49 -60,-115 -60,-200 0,-85 20,-151 60,-199 40,-49 95,-74 165,-74 69,0 124,25 165,74 39,48 59,114 59,199 0,85 -20,151 -59,200 -41,49 -96,73 -165,73z"/>
   <path class="fil0" d="M2763 5429l-348 0 0 -22 6 0c26,-2 41,-6 47,-13 4,-6 7,-24 7,-57l0 -338c0,-32 -3,-52 -7,-58 -6,-6 -21,-10 -47,-11l-6 -1 0 -21 188 0 0 21 -6 1c-27,1 -42,5 -47,11 -4,6 -7,26 -7,58l0 338c0,32 3,50 7,54 4,5 21,7 50,7l49 0c40,0 62,-2 68,-7 7,-5 10,-25 12,-60l0 -7 34 0 0 105 0 0z"/>
   <path class="fil0" d="M3167 5429l-348 0 0 -22 6 0c27,-2 42,-6 47,-13 5,-6 7,-24 7,-57l0 -338c0,-32 -2,-52 -7,-58 -5,-6 -20,-10 -47,-11l-6 -1 0 -21 189 0 0 21 -7 1c-26,1 -42,5 -46,11 -5,6 -7,26 -7,58l0 338c0,32 2,50 6,54 5,5 21,7 51,7l50 0c38,0 62,-2 67,-7 6,-5 10,-25 11,-60l1 -7 33 0 0 105 0 0z"/>
   <path class="fil0" d="M3469 5418c48,0 86,-23 112,-66 27,-44 41,-106 41,-183 0,-78 -14,-139 -41,-184 -26,-44 -64,-66 -112,-66 -48,0 -85,22 -112,66 -27,45 -40,106 -40,184 0,77 13,139 40,183 27,43 64,66 112,66zm0 23c-70,0 -125,-24 -164,-73 -41,-49 -60,-115 -60,-200 0,-85 19,-151 60,-199 39,-49 94,-74 164,-74 69,0 124,25 165,74 39,48 60,114 60,199 0,85 -21,151 -60,200 -41,49 -96,73 -165,73z"/>
   <path class="fil0" d="M3800 5418l0 -101 34 0 0 7c1,11 1,20 1,27 0,18 7,31 21,41 23,15 48,24 76,24 29,0 51,-10 67,-27 17,-18 25,-42 25,-74 0,-25 -5,-47 -15,-62 -11,-15 -31,-32 -61,-51l-35 -21c-73,-45 -110,-94 -110,-147 0,-40 14,-74 40,-100 27,-25 60,-39 101,-39 17,0 36,2 57,6 20,4 41,10 65,18l0 92 -36 0 -1 -6c0,-13 0,-22 0,-28 0,-20 -7,-35 -20,-44 -14,-9 -34,-14 -61,-14 -24,0 -43,8 -57,24 -15,17 -23,39 -23,65 0,24 6,43 16,57 10,15 27,32 54,47l34 21c47,29 78,54 95,76 17,22 25,48 25,81 0,43 -15,80 -45,108 -29,29 -67,43 -112,43 -26,0 -50,-2 -73,-6 -22,-4 -43,-10 -62,-17z"/>
   <path class="fil0" d="M4534 4931l0 406c0,33 3,50 9,55 12,8 35,13 68,13 62,0 108,-20 138,-59 31,-40 47,-100 47,-180 0,-83 -17,-143 -50,-179 -33,-38 -86,-56 -160,-56l-52 0 0 0zm-128 498l0 -22 6 0c26,-2 42,-6 47,-12 4,-7 7,-25 7,-58l0 -338c0,-32 -3,-52 -7,-58 -5,-6 -21,-10 -47,-11l-6 -1 0 -21 154 0 50 0 23 0c77,0 134,21 174,64 41,43 60,105 60,186 0,83 -20,150 -62,198 -41,48 -97,73 -169,73l-230 0 0 0z"/>
   <path class="fil0" d="M5299 5429l-348 0 0 -22 6 0c26,-2 41,-6 46,-13 5,-6 7,-24 7,-57l0 -338c0,-32 -2,-52 -7,-58 -5,-6 -20,-10 -46,-11l-6 -1 0 -21 329 0 0 91 -35 0 -1 -7c-1,-33 -4,-50 -6,-53 -3,-2 -21,-4 -53,-4l-106 0 0 209 90 0c19,0 30,-2 35,-4 4,-2 7,-13 8,-32l0 -6 26 0 0 112 -26 0 0 -6c-1,-17 -4,-27 -8,-31 -5,-3 -16,-5 -35,-5l-90 0 0 165c0,28 3,45 9,51 7,7 22,10 47,10l53 0c38,0 59,-2 64,-6 6,-4 9,-21 10,-53l1 -6 36 0 0 96 0 0z"/>
   <path class="fil0" d="M6009 5399c-44,28 -95,42 -153,42 -73,0 -132,-24 -174,-73 -43,-49 -63,-116 -63,-201 0,-86 20,-153 61,-200 40,-48 98,-72 171,-72 38,0 88,9 149,26l0 100 -41 0 0 -7c0,-7 -1,-14 -1,-21 0,-22 -9,-41 -29,-54 -20,-13 -46,-20 -80,-20 -48,0 -87,22 -115,67 -29,45 -44,106 -44,181 0,75 17,134 51,175 34,43 81,64 142,64 40,0 81,-14 126,-40l0 33 0 0z"/>
   <path class="fil0" d="M6213 5240l185 0 -92 -237 -93 237 0 0zm-11 27l-27 70c-11,28 -16,46 -16,55 0,10 14,15 42,15l5 0 0 22 -125 0 0 -22 7 0c18,-1 30,-4 34,-8 3,-4 12,-24 27,-62l169 -435 22 0 170 438c13,32 22,50 27,56 5,6 16,10 32,11l8 0 0 22 -179 0 0 -22 6 0c31,0 46,-5 46,-14 0,-14 -5,-32 -14,-56l-28 -70 -206 0 0 0z"/>
   <path class="fil0" d="M6624 4929l0 -21 139 0 144 379 139 -379 122 0 0 21 -6 1c-27,1 -42,5 -47,11 -5,6 -7,26 -7,58l0 338c0,33 2,51 7,57 5,7 20,11 47,13l6 0 0 22 -184 0 0 -22 6 0c27,-2 42,-6 47,-13 5,-6 7,-24 7,-57l0 -357 -150 407 -24 0 -150 -413 0 363c0,33 2,51 7,57 5,7 20,11 47,13l5 0 0 22 -155 0 0 -22 7 0c25,-2 40,-6 45,-13 5,-6 7,-24 7,-57l0 -338c0,-32 -2,-52 -7,-58 -4,-6 -20,-10 -45,-11l-7 -1 0 0z"/>
   <path class="fil0" d="M7359 5188l24 0c43,0 76,-12 96,-37 21,-23 32,-58 32,-106 0,-42 -8,-70 -24,-88 -16,-17 -44,-26 -81,-26l-47 0 0 257zm0 23l0 126c0,32 3,51 8,57 5,7 20,11 46,13l14 0 0 22 -196 0 0 -22 6 0c25,-2 42,-6 46,-13 5,-6 7,-24 7,-57l0 -338c0,-32 -2,-52 -7,-58 -4,-6 -21,-10 -46,-11l-6 -1 0 -21 142 0 48 0 22 -1c94,0 140,45 140,137 0,56 -17,97 -50,126 -35,27 -86,41 -154,41l-20 0 0 0z"/>
   <path class="fil0" d="M7890 5418c48,0 86,-23 113,-66 26,-44 41,-106 41,-183 0,-78 -15,-139 -41,-184 -27,-44 -65,-66 -113,-66 -46,0 -84,22 -111,66 -27,45 -41,106 -41,184 0,77 14,139 41,183 27,43 65,66 111,66zm0 23c-69,0 -124,-24 -163,-73 -41,-49 -61,-115 -61,-200 0,-85 20,-151 61,-199 39,-49 94,-74 163,-74 70,0 125,25 165,74 40,48 61,114 61,199 0,85 -21,151 -61,200 -40,49 -95,73 -165,73z"/>
   <path class="fil0" d="M538 3823l58 0c206,0 308,-10 308,-232 0,-105 -19,-138 -58,-183 -38,-43 -103,-65 -196,-65l-112 0 0 480 0 0zm443 595l-308 -535 -137 0 0 541 -165 0 0 -910c0,-80 -6,-129 -18,-144 -12,-16 -50,-26 -113,-30l-15 -2 0 -37 280 0 142 -3 63 -3c242,0 362,53 362,276 0,185 -80,208 -239,271 0,0 334,566 340,576l-192 0 0 0z"/>
   <path class="fil0" d="M5980 3982l181 -466 189 466 -370 0 0 0zm298 -701l-324 0 -5 46 95 18c54,18 36,72 36,72l-369 1009 112 0 126 -351 433 0 130 351 181 0 -415 -1145 0 0z"/>
   <path class="fil0" d="M9113 4074l144 -370 150 370 -294 0zm237 -556l-258 0 -3 36 75 14c43,14 29,57 29,57l-294 801 89 0 101 -279 342 0 104 279 143 0 -328 -908 0 0z"/>
   <path class="fil0" d="M4292 4074l143 -370 150 370 -293 0zm236 -556l-257 0 -4 36 75 14c43,14 28,57 28,57l-292 801 89 0 100 -279 343 0 104 279 143 0 -329 -908 0 0z"/>
   <path class="fil0" d="M6944 3534l284 -31 5 837c0,0 131,50 297,9 0,0 64,-22 68,-121l40 0 -9 184 -549 0 0 -783c0,0 5,-54 -73,-54l-63 -5 0 -36 0 0z"/>
   <path class="fil0" d="M2637 4430l-151 0 0 -801c0,0 5,-54 -72,-54l-63 -5 0 -36 286 -31 0 927 0 0z"/>
   <path class="fil3" d="M4522 852l709 0c0,0 129,65 138,175l-727 0c0,0 -60,-120 -120,-175l0 0z"/>
   <path class="fil3" d="M5464 1345c0,0 -50,-76 -72,-6l0 247 71 61 1 -302z"/>
   <path class="fil2" d="M4666 1087l817 0c0,0 16,24 -13,48 0,0 -144,115 -144,222 0,0 -25,119 19,295 0,0 90,312 -114,366l-866 0c0,0 -10,-38 18,-36 0,0 143,-83 163,-295 0,0 -2,-98 -43,-204 0,0 -149,-300 163,-396l0 0z"/>
   <path class="fil4" d="M5197 1232c0,31 -24,54 -54,54 -29,0 -55,-23 -55,-54 0,-29 26,-54 55,-54 30,0 54,25 54,54z"/>
  </g>
 </g>
</svg>
