<?xml version="1.0" encoding="UTF-8"?>
<!DOCTYPE svg PUBLIC "-//W3C//DTD SVG 1.1//EN" "http://www.w3.org/Graphics/SVG/1.1/DTD/svg11.dtd">
<!-- Creator: CorelDRAW X7 -->
<svg xmlns="http://www.w3.org/2000/svg" xml:space="preserve" width="34.2147mm" height="5.8434mm" version="1.1" style="shape-rendering:geometricPrecision; text-rendering:geometricPrecision; image-rendering:optimizeQuality; fill-rule:evenodd; clip-rule:evenodd"
viewBox="0 0 3172 542"
 xmlns:xlink="http://www.w3.org/1999/xlink">
 <defs>
  <style type="text/css">
   <![CDATA[
    .fil0 {fill:#FFF9DB;fill-rule:nonzero}
   ]]>
  </style>
 </defs>
 <g id="Capa_x0020_1">
  <metadata id="CorelCorpID_0Corel-Layer"/>
  <g id="_710753544">
   <g>
    <path class="fil0" d="M58 253l-11 -4 -4 -6 0 -66 -1 -6 1 -92 -1 -7 1 -14 0 -43 3 -5 8 -4 7 -2 7 2 7 0 22 -2 7 2 22 0 8 -1 11 -1 11 1 7 2 7 0 6 3 14 4 11 8 16 14 9 11 7 12 4 13 1 8 1 6 0 29 -3 6 -1 8 -6 13 -7 12 -5 5 -4 5 -5 5 -5 4 -34 14 -36 3 -8 -2 -8 1 -8 4 -3 6 0 8 0 7 0 13 0 8 0 7 -3 7 -7 3 -8 1 -7 0 -17 0 -6 0zm67 -121l0 0 19 0 10 -1 6 -2 6 -4 4 -6 4 -6 2 -6 1 -10 -1 -9 -1 -7 -4 -7 -4 -5 -6 -3 -7 -4 -37 -1 -7 4 -4 7 0 14 0 8 1 28 3 6 7 4 8 0z"/>
    <path class="fil0" d="M363 256l-30 -9 -7 -3 -24 -13 -5 -5 -10 -9 -16 -23 -4 -6 -2 -8 -5 -12 -4 -22 1 -41 3 -15 7 -20 3 -6 12 -17 10 -11 11 -8 5 -4 18 -11 13 -4 7 -3 7 -2 7 -1 25 -2 16 1 47 14 18 11 15 14 4 7 5 4 4 6 3 6 6 12 2 8 3 7 2 13 2 25 -2 25 -1 7 -2 6 -1 7 -3 7 -13 24 -5 7 -25 23 -31 14 -14 5 -31 3 -21 -1zm31 -62l0 0 7 -2 7 -1 5 -3 7 -3 11 -8 4 -6 3 -6 4 -5 3 -15 2 -17 -1 -15 -3 -7 -2 -7 -3 -6 -8 -12 -11 -8 -18 -8 -17 -2 -17 2 -7 2 -7 3 -10 7 -5 4 -5 6 -3 6 -4 5 -2 6 -3 14 0 10 2 18 6 20 5 5 4 5 11 9 12 6 6 1 7 3 20 -1z"/>
    <polygon class="fil0" points="544,235 546,228 545,221 545,178 545,171 544,157 545,150 544,136 545,129 544,114 545,107 545,100 546,94 545,86 545,79 545,73 546,65 545,58 544,51 545,44 546,37 544,19 549,9 559,5 596,4 605,9 608,19 609,37 608,44 609,100 608,107 609,115 608,125 609,142 608,150 609,157 608,165 609,171 609,184 611,192 619,195 681,196 689,195 694,199 699,206 698,213 699,221 698,227 698,234 698,242 695,248 685,252 560,253 548,248 545,242 "/>
    <polygon class="fil0" points="727,235 729,228 728,221 729,178 728,171 727,157 729,150 727,136 729,129 727,114 729,107 728,100 729,94 728,86 729,79 728,73 729,65 729,58 727,51 729,44 729,37 727,19 732,9 742,5 779,4 788,9 791,19 792,37 791,44 793,100 791,107 793,115 791,125 792,142 791,150 792,157 791,165 793,171 792,184 794,192 802,195 864,196 872,195 877,199 882,206 881,213 882,221 881,227 881,234 882,242 878,248 868,252 743,253 731,248 728,242 "/>
    <path class="fil0" d="M994 256l-30 -9 -6 -3 -24 -13 -5 -5 -10 -9 -17 -23 -3 -6 -2 -8 -6 -12 -3 -22 1 -41 3 -15 7 -20 3 -6 12 -17 9 -11 12 -8 5 -4 18 -11 13 -4 6 -3 7 -2 8 -1 24 -2 17 1 46 14 18 11 15 14 5 7 4 4 5 6 2 6 7 12 1 8 3 7 3 13 2 25 -2 25 -1 7 -2 6 -1 7 -3 7 -14 24 -4 7 -25 23 -32 14 -13 5 -31 3 -22 -1zm32 -62l0 0 7 -2 6 -1 6 -3 6 -3 11 -8 4 -6 4 -6 4 -5 3 -15 2 -17 -2 -15 -2 -7 -2 -7 -3 -6 -8 -12 -11 -8 -19 -8 -17 -2 -16 2 -7 2 -7 3 -10 7 -5 4 -5 6 -3 6 -4 5 -3 6 -2 14 0 10 1 18 7 20 5 5 3 5 11 9 12 6 7 1 7 3 20 -1z"/>
    <polygon class="fil0" points="1231,253 1217,248 1210,246 1203,243 1198,237 1186,230 1181,224 1176,220 1170,207 1168,200 1166,193 1165,186 1168,179 1174,176 1201,174 1208,176 1215,175 1222,178 1233,190 1239,194 1245,197 1263,199 1270,198 1281,197 1293,192 1297,187 1300,178 1298,169 1293,165 1281,159 1225,153 1212,148 1188,135 1175,119 1170,107 1167,92 1167,81 1168,64 1174,45 1187,28 1204,16 1216,9 1229,5 1235,4 1242,4 1250,2 1277,2 1291,5 1311,12 1334,28 1342,39 1352,57 1353,64 1354,71 1351,77 1345,81 1338,81 1331,81 1322,80 1305,81 1297,77 1292,70 1286,65 1280,61 1273,59 1262,57 1251,58 1244,59 1239,62 1233,66 1229,71 1227,80 1229,91 1234,96 1247,102 1266,106 1276,106 1283,108 1291,108 1298,109 1325,118 1332,121 1337,124 1344,130 1353,141 1357,146 1362,167 1363,178 1361,196 1358,202 1356,208 1352,216 1349,221 1339,231 1315,246 1308,249 1302,250 1294,253 1287,254 1280,255 1273,256 1245,255 "/>
   </g>
   <g>
    <polygon class="fil0" points="91,541 85,540 79,539 73,537 69,536 63,534 43,523 39,520 34,517 24,506 12,490 10,485 7,480 6,474 4,469 1,458 1,446 0,437 5,401 19,375 22,370 30,362 33,358 53,345 59,343 63,340 69,338 80,336 85,334 90,333 117,333 131,336 142,339 159,346 165,351 180,364 191,379 195,390 196,395 199,401 197,407 192,410 186,410 157,410 151,407 146,401 143,397 139,392 130,385 124,383 113,381 95,380 85,383 80,386 70,392 63,401 58,412 56,417 56,423 54,428 54,437 55,451 58,462 60,467 71,481 75,485 80,488 96,493 112,494 118,493 124,491 134,486 145,475 147,470 153,464 159,461 190,462 197,465 199,470 198,475 196,481 195,487 192,492 184,507 179,511 176,516 172,519 167,523 162,526 157,529 141,536 113,542 96,541 "/>
    <polygon class="fil0" points="226,524 227,518 226,507 226,501 226,494 226,489 226,484 227,477 226,471 226,460 226,448 226,442 226,390 226,385 226,379 225,364 226,356 226,344 229,338 237,336 275,335 280,336 291,336 297,336 310,336 316,336 321,336 344,336 350,339 353,344 352,350 352,356 353,362 353,374 350,379 344,382 289,382 280,385 277,393 277,402 281,408 286,411 308,410 315,411 321,411 327,410 339,411 343,414 346,419 347,425 346,448 343,453 337,457 332,457 326,456 318,457 303,456 297,457 286,457 281,460 278,466 278,480 280,489 287,493 293,492 299,493 305,492 343,492 352,495 355,501 355,506 355,524 354,530 352,535 346,538 340,539 323,538 305,538 300,538 234,538 229,535 225,530 "/>
    <path class="fil0" d="M386 506l0 -6 -1 -17 1 -12 -1 -6 0 -11 1 -6 0 -14 -1 -9 1 -81 2 -6 6 -2 6 0 6 -1 12 1 5 -1 17 1 5 -1 7 1 5 -1 7 1 8 -1 7 1 24 5 10 5 15 11 3 4 4 5 7 15 2 6 1 6 1 5 0 23 -3 11 -2 5 -4 5 -2 6 -3 5 -8 7 -3 7 1 6 8 15 4 5 3 5 3 6 3 4 9 15 4 7 -1 6 -6 1 -7 1 -11 0 -6 -1 -6 1 -11 -1 -7 -1 -6 -6 -3 -4 -3 -5 -4 -6 -8 -14 -2 -6 -7 -10 -5 -5 -7 -2 -5 0 -5 0 -6 3 -3 6 1 18 -1 12 1 6 -1 7 -2 5 -9 3 -8 0 -6 -1 -12 1 -6 0 -5 -3 -2 -6 -1 -23zm66 -74l0 0 6 0 22 -2 5 -2 3 -3 3 -5 3 -6 0 -8 0 -8 -2 -5 -3 -4 -9 -5 -13 -2 -16 -1 -5 1 -6 3 -3 5 1 33 3 6 5 3 6 0z"/>
    <path class="fil0" d="M651 540l-5 -2 -5 -1 -12 -3 -20 -11 -17 -14 -4 -5 -2 -4 -4 -5 -3 -5 -8 -22 -4 -22 1 -17 1 -12 6 -23 2 -5 8 -14 8 -9 8 -8 13 -10 21 -10 17 -4 20 -2 15 1 16 3 5 2 16 7 4 3 6 3 4 3 5 3 8 9 3 4 7 9 3 5 2 5 2 6 3 5 4 17 1 11 0 10 0 9 -8 34 -2 6 -2 7 3 7 11 13 5 5 7 9 3 6 0 5 -6 2 -39 0 -5 1 -7 -2 -6 -5 -7 -3 -8 0 -5 3 -23 6 -15 0 -8 0 -13 -1zm35 -51l0 0 6 -1 6 -3 9 -7 8 -10 3 -4 2 -6 3 -12 0 -9 -1 -9 0 -6 -2 -6 -3 -5 -3 -6 -3 -4 -4 -4 -10 -8 -6 -2 -5 -2 -5 -2 -18 0 -12 4 -6 2 -5 3 -4 5 -5 3 -3 6 -5 10 -3 12 0 9 1 9 3 12 2 5 3 5 7 10 10 7 11 4 15 2 8 -1 6 -1z"/>
    <polygon class="fil0" points="861,539 855,538 851,536 844,534 838,532 834,528 824,523 821,519 813,509 807,499 805,494 804,488 803,483 803,477 802,468 802,447 801,436 802,430 801,425 802,419 801,413 802,407 801,390 802,379 801,367 802,362 802,344 805,339 810,336 841,336 848,338 851,344 851,350 849,359 849,364 850,373 850,396 850,401 850,419 851,425 851,475 853,482 857,486 861,489 867,493 873,494 882,495 890,494 901,490 906,486 909,482 911,476 912,467 912,452 913,447 912,436 913,430 912,425 913,402 912,396 912,390 912,378 913,373 912,344 915,338 922,335 949,336 958,338 960,344 961,349 961,373 962,379 961,384 961,390 961,399 961,408 960,414 961,419 962,425 962,430 961,436 962,460 960,489 958,494 955,499 953,505 949,509 946,514 933,526 928,529 923,532 919,534 913,536 907,538 895,541 881,541 867,540 "/>
    <polygon class="fil0" points="989,507 990,502 993,496 1012,490 1015,484 1016,473 1015,460 1016,454 1015,443 1015,437 1016,425 1015,419 1015,414 1015,389 1012,384 994,378 991,373 991,367 991,361 991,355 991,350 991,344 994,338 1001,336 1012,336 1017,336 1035,336 1041,336 1078,336 1087,338 1090,344 1090,350 1090,355 1090,372 1087,378 1081,381 1075,381 1069,384 1066,390 1066,402 1067,408 1066,414 1067,419 1066,428 1067,437 1065,449 1067,460 1066,484 1069,490 1089,496 1093,501 1092,519 1092,524 1092,530 1089,535 1084,538 998,538 992,536 989,530 "/>
    <polygon class="fil0" points="1156,506 1156,501 1156,483 1156,477 1156,471 1157,462 1156,454 1156,442 1156,437 1156,431 1157,422 1156,390 1153,385 1148,382 1122,381 1115,382 1109,379 1106,373 1106,344 1109,338 1115,336 1201,336 1208,335 1214,335 1220,336 1225,336 1232,335 1237,335 1242,336 1249,335 1254,338 1257,344 1257,367 1257,373 1254,379 1248,382 1232,381 1227,382 1221,382 1216,382 1210,385 1207,390 1208,396 1207,402 1208,460 1207,472 1208,477 1207,495 1206,501 1207,506 1208,517 1207,524 1207,529 1205,535 1199,537 1181,537 1176,538 1170,537 1165,538 1158,535 1156,529 "/>
    <path class="fil0" d="M1248 518l2 -6 4 -4 8 -22 8 -15 2 -5 3 -5 1 -6 4 -8 3 -5 4 -8 4 -10 4 -5 1 -5 16 -37 3 -5 13 -26 2 -5 5 -5 9 -3 10 3 5 5 2 6 3 4 4 11 6 11 5 10 1 4 5 11 2 6 6 10 1 5 3 5 2 5 4 5 1 6 3 5 2 5 2 5 3 6 3 5 4 10 3 5 2 6 5 10 2 6 2 4 2 6 4 5 2 5 2 7 -1 6 -6 2 -18 0 -10 0 -5 0 -7 -3 -5 -4 -3 -6 -2 -5 -6 -4 -10 -4 -13 1 -6 -1 -5 0 -7 1 -6 -1 -16 1 -6 -1 -7 3 -5 6 -5 9 -5 6 -7 2 -7 0 -26 0 -5 -2 -2 -6 4 -12zm108 -52l0 0 5 -2 0 -5 -2 -6 -2 -5 -2 -5 -3 -5 -4 -11 -3 -2 -4 2 -2 5 -12 26 1 6 5 3 23 -1z"/>
    <path class="fil0" d="M1539 518l-1 -23 1 -6 -1 -23 1 -11 -1 -6 1 -6 -1 -12 1 -11 -1 -23 1 -6 -1 -6 1 -6 -1 -11 1 -6 -1 -6 0 -12 4 -5 6 -3 6 0 5 0 6 0 18 0 6 0 41 0 12 3 16 5 6 3 10 6 8 8 5 4 8 9 2 5 7 10 4 11 2 5 0 7 4 16 -1 19 1 4 -2 7 -1 6 -2 5 -1 6 -3 5 -1 6 -9 14 -12 13 -24 17 -17 5 -19 3 -52 0 -6 1 -5 0 -7 -1 -6 0 -5 -3 -3 -6 0 -11zm85 -28l0 0 10 -3 6 -3 5 -2 3 -5 4 -4 4 -5 4 -11 2 -5 1 -14 -1 -9 -3 -17 -4 -5 -3 -6 -7 -8 -10 -6 -12 -3 -8 -1 -6 0 -6 0 -9 3 -3 5 0 75 -1 5 1 6 -1 5 3 7 7 2 24 -1z"/>
    <polygon class="fil0" points="1743,524 1744,518 1743,507 1743,501 1743,494 1743,489 1743,484 1744,477 1743,471 1743,460 1743,448 1743,442 1743,390 1743,385 1743,379 1742,364 1743,356 1743,344 1746,338 1754,336 1792,335 1797,336 1808,336 1814,336 1827,336 1833,336 1838,336 1861,336 1867,339 1870,344 1869,350 1869,356 1870,362 1870,374 1867,379 1861,382 1806,382 1797,385 1794,393 1794,402 1798,408 1803,411 1825,410 1832,411 1838,411 1844,410 1856,411 1860,414 1863,419 1864,425 1863,448 1860,453 1854,457 1849,457 1843,456 1835,457 1820,456 1814,457 1803,457 1798,460 1795,466 1795,480 1797,489 1804,493 1810,492 1816,493 1822,492 1860,492 1869,495 1872,501 1872,506 1872,524 1871,530 1869,535 1863,538 1857,539 1840,538 1822,538 1817,538 1751,538 1746,535 1742,530 "/>
    <polygon class="fil0" points="2009,506 2010,501 2009,483 2009,477 2009,471 2010,462 2009,454 2009,442 2010,437 2009,431 2010,422 2009,390 2006,385 2001,382 1975,381 1968,382 1962,379 1959,373 1959,344 1962,338 1968,336 2054,336 2061,335 2067,335 2073,336 2078,336 2085,335 2090,335 2095,336 2102,335 2108,338 2111,344 2110,367 2111,373 2108,379 2101,382 2085,381 2080,382 2074,382 2069,382 2063,385 2061,390 2061,396 2060,402 2061,460 2061,472 2061,477 2061,495 2060,501 2061,506 2061,517 2060,524 2061,529 2058,535 2052,537 2035,537 2029,538 2023,537 2018,538 2012,535 2009,529 "/>
    <polygon class="fil0" points="2189,539 2183,538 2179,536 2172,534 2167,532 2162,528 2152,523 2149,519 2141,509 2135,499 2133,494 2133,488 2131,483 2131,477 2130,468 2130,447 2129,436 2130,430 2130,425 2130,419 2129,413 2130,407 2129,390 2130,379 2129,367 2130,362 2130,344 2133,339 2139,336 2169,336 2176,338 2179,344 2179,350 2178,359 2178,364 2178,373 2178,396 2178,401 2178,419 2179,425 2180,475 2181,482 2185,486 2189,489 2196,493 2201,494 2210,495 2218,494 2230,490 2234,486 2237,482 2240,476 2241,467 2240,452 2241,447 2241,436 2241,430 2240,425 2241,402 2240,396 2241,390 2240,378 2241,373 2241,344 2244,338 2250,335 2277,336 2286,338 2289,344 2290,349 2289,373 2290,379 2289,384 2290,390 2289,399 2289,408 2289,414 2289,419 2290,425 2290,430 2289,436 2290,460 2288,489 2286,494 2283,499 2281,505 2277,509 2274,514 2261,526 2257,529 2251,532 2247,534 2241,536 2235,538 2223,541 2209,541 2195,540 "/>
    <polygon class="fil0" points="2477,541 2472,540 2466,539 2460,537 2455,536 2449,534 2430,523 2425,520 2420,517 2410,506 2399,490 2396,485 2394,480 2393,474 2390,469 2388,458 2388,446 2386,437 2392,401 2405,375 2408,370 2416,362 2420,358 2440,345 2445,343 2449,340 2455,338 2466,336 2472,334 2477,333 2503,333 2517,336 2529,339 2545,346 2551,351 2567,364 2577,379 2582,390 2583,395 2585,401 2583,407 2579,410 2573,410 2544,410 2537,407 2532,401 2529,397 2525,392 2517,385 2511,383 2500,381 2482,380 2472,383 2466,386 2457,392 2449,401 2444,412 2443,417 2442,423 2440,428 2440,437 2441,451 2444,462 2447,467 2457,481 2461,485 2467,488 2482,493 2499,494 2505,493 2510,491 2520,486 2531,475 2534,470 2539,464 2546,461 2577,462 2584,465 2586,470 2585,475 2583,481 2581,487 2579,492 2570,507 2565,511 2562,516 2558,519 2553,523 2548,526 2544,529 2528,536 2500,542 2482,541 "/>
    <path class="fil0" d="M2595 518l3 -6 3 -4 9 -22 8 -15 2 -5 2 -5 2 -6 4 -8 2 -5 4 -8 5 -10 3 -5 2 -5 16 -37 3 -5 12 -26 2 -5 6 -5 9 -3 10 3 5 5 2 6 2 4 5 11 6 11 4 10 2 4 5 11 1 6 6 10 2 5 3 5 2 5 3 5 2 6 2 5 2 5 3 5 2 6 4 5 4 10 2 5 3 6 4 10 2 6 3 4 2 6 4 5 2 5 1 7 -1 6 -5 2 -18 0 -10 0 -5 0 -8 -3 -5 -4 -3 -6 -1 -5 -6 -4 -10 -4 -14 1 -6 -1 -5 0 -7 1 -6 -1 -16 1 -6 -1 -6 3 -5 6 -5 9 -6 6 -6 2 -8 0 -25 0 -6 -2 -1 -6 3 -12zm109 -52l0 0 4 -2 1 -5 -2 -6 -3 -5 -1 -5 -3 -5 -4 -11 -3 -2 -4 2 -3 5 -11 26 0 6 6 3 23 -1z"/>
    <polygon class="fil0" points="2862,539 2856,537 2850,536 2829,527 2824,524 2816,515 2809,506 2804,495 2803,490 2802,483 2804,477 2810,475 2816,475 2822,474 2844,475 2850,477 2854,483 2858,487 2863,490 2868,492 2874,494 2883,495 2891,494 2902,491 2906,488 2911,484 2913,477 2911,469 2907,466 2897,462 2891,461 2886,460 2862,459 2852,456 2835,451 2825,445 2817,437 2810,428 2806,418 2804,410 2804,390 2808,373 2811,369 2813,364 2817,360 2820,355 2825,351 2829,348 2835,344 2839,342 2844,340 2849,338 2872,333 2888,333 2895,334 2900,335 2906,336 2922,341 2940,354 2944,358 2947,363 2951,368 2955,378 2958,389 2955,395 2950,398 2944,398 2939,398 2920,398 2911,395 2901,385 2897,381 2891,379 2872,379 2867,381 2863,382 2858,386 2855,390 2854,398 2854,405 2859,410 2863,412 2875,417 2904,421 2928,426 2944,433 2948,437 2955,446 2961,457 2963,462 2963,468 2963,486 2962,491 2961,497 2958,502 2952,512 2944,521 2935,527 2920,535 2892,541 2882,541 2874,540 "/>
    <path class="fil0" d="M2974 518l3 -6 4 -4 8 -22 8 -15 2 -5 3 -5 1 -6 4 -8 2 -5 5 -8 4 -10 4 -5 1 -5 16 -37 3 -5 13 -26 2 -5 5 -5 9 -3 10 3 5 5 2 6 3 4 4 11 6 11 4 10 2 4 5 11 2 6 6 10 1 5 3 5 2 5 3 5 2 6 3 5 2 5 2 5 3 6 3 5 4 10 3 5 2 6 5 10 1 6 3 4 2 6 4 5 2 5 2 7 -2 6 -5 2 -18 0 -10 0 -5 0 -8 -3 -4 -4 -4 -6 -1 -5 -6 -4 -10 -4 -13 1 -6 -1 -6 0 -6 1 -6 -1 -16 1 -6 -1 -7 3 -5 6 -5 9 -5 6 -7 2 -7 0 -26 0 -6 -2 -1 -6 3 -12zm109 -52l0 0 5 -2 0 -5 -2 -6 -3 -5 -1 -5 -3 -5 -4 -11 -3 -2 -4 2 -2 5 -12 26 1 6 5 3 23 -1z"/>
   </g>
   <g>
    <polygon class="fil0" points="1976,254 1970,252 1963,250 1956,248 1940,242 1925,234 1909,220 1895,204 1880,174 1875,153 1873,128 1876,97 1880,83 1889,63 1895,53 1905,41 1920,27 1930,19 1956,7 1991,0 2013,0 2020,1 2026,2 2060,13 2084,28 2094,39 2098,45 2103,51 2106,57 2110,63 2112,70 2115,76 2117,84 2114,91 2108,94 2098,95 2088,94 2081,94 2073,94 2067,95 2059,91 2052,84 2048,79 2038,69 2033,65 2027,62 2016,59 2001,58 1977,61 1967,67 1959,74 1950,83 1947,90 1942,103 1939,117 1939,139 1940,146 1942,153 1944,158 1947,165 1955,177 1965,186 1977,193 1990,197 2000,198 2019,197 2031,191 2037,188 2042,183 2050,174 2054,168 2060,162 2068,158 2075,158 2082,158 2089,159 2109,157 2116,162 2118,168 2109,195 2101,208 2093,218 2083,228 2066,241 2060,244 2053,246 2046,250 2025,254 2001,256 1983,254 "/>
    <path class="fil0" d="M2128 227l3 -7 4 -6 10 -26 10 -18 3 -7 3 -6 2 -7 5 -9 3 -7 5 -9 6 -13 3 -6 2 -6 20 -45 4 -6 15 -32 2 -6 7 -7 11 -3 12 3 7 7 2 6 3 6 6 13 7 13 5 12 2 6 6 14 2 6 7 13 2 6 4 6 2 6 4 7 2 7 4 5 2 7 3 6 3 7 4 6 5 13 3 6 3 7 6 12 2 7 4 5 2 8 4 6 3 6 2 9 -2 7 -6 2 -22 1 -12 -1 -7 1 -9 -4 -6 -6 -4 -6 -1 -6 -8 -6 -11 -4 -17 1 -8 -1 -6 0 -8 1 -7 -1 -20 1 -7 -1 -9 3 -6 7 -6 12 -6 6 -8 4 -9 -1 -32 0 -7 -2 -1 -7 4 -15zm132 -63l0 0 6 -3 1 -7 -2 -6 -4 -7 -1 -6 -4 -6 -5 -13 -4 -3 -5 3 -3 6 -14 32 1 7 7 3 27 0z"/>
    <polygon class="fil0" points="2395,234 2394,184 2395,177 2394,22 2395,14 2399,7 2406,3 2416,6 2427,13 2434,22 2438,27 2443,31 2447,36 2452,41 2458,47 2466,57 2490,82 2495,88 2500,93 2505,99 2509,103 2516,105 2523,103 2576,47 2579,42 2599,21 2607,11 2616,6 2627,3 2634,7 2638,14 2637,22 2638,28 2637,35 2638,135 2637,141 2638,148 2637,156 2638,163 2636,170 2637,184 2636,191 2638,233 2637,240 2633,247 2626,252 2584,251 2576,248 2572,241 2574,192 2572,179 2573,172 2572,166 2574,159 2572,152 2570,148 2565,148 2560,153 2556,159 2526,189 2520,194 2512,194 2500,184 2496,178 2476,159 2467,148 2462,147 2459,152 2460,172 2459,220 2460,228 2460,235 2460,242 2456,247 2445,251 2406,251 2398,247 2395,241 "/>
    <path class="fil0" d="M2698 252l-11 -4 -4 -6 0 -66 0 -6 0 -92 -1 -7 2 -14 -1 -43 4 -5 7 -4 8 -1 6 1 8 0 22 -1 7 1 21 0 8 -1 11 0 11 0 7 2 7 0 6 3 14 4 12 8 16 14 8 11 7 12 4 13 1 8 2 6 -1 29 -2 6 -1 8 -6 13 -8 12 -4 5 -5 5 -5 5 -5 4 -34 14 -36 3 -8 -2 -7 1 -8 4 -4 6 1 8 -1 7 1 13 -1 8 1 7 -3 7 -8 3 -8 1 -6 0 -18 0 -6 0zm68 -121l0 0 18 0 11 -1 5 -2 6 -4 5 -6 3 -6 2 -6 1 -10 -1 -9 -1 -7 -3 -7 -5 -4 -5 -4 -8 -4 -36 -1 -8 4 -3 7 0 14 -1 8 1 28 3 6 7 4 9 0z"/>
    <path class="fil0" d="M3003 255l-30 -9 -7 -3 -24 -13 -4 -5 -10 -9 -17 -23 -3 -6 -3 -8 -5 -12 -4 -22 2 -41 3 -15 6 -20 3 -6 12 -17 10 -11 11 -8 5 -4 18 -11 14 -4 6 -3 7 -2 7 -1 25 -2 17 1 46 14 18 12 15 13 5 7 4 4 5 6 2 6 6 12 2 8 3 7 3 14 2 24 -2 25 -2 7 -2 6 -1 7 -2 7 -14 24 -5 7 -24 23 -32 14 -13 5 -32 3 -21 -1zm32 -62l0 0 7 -2 6 0 6 -4 6 -2 11 -9 4 -6 3 -6 4 -5 3 -14 3 -18 -2 -15 -2 -7 -2 -7 -3 -6 -8 -12 -11 -8 -19 -8 -17 -1 -16 1 -8 2 -6 3 -10 7 -6 5 -4 5 -3 6 -5 5 -2 7 -2 13 -1 10 2 18 7 20 4 5 4 5 11 9 12 7 6 0 7 3 21 -1z"/>
   </g>
   <g>
    <path class="fil0" d="M1483 166l-1 -20 1 -5 -1 -20 1 -9 -1 -6 1 -4 -1 -11 1 -10 -1 -20 1 -5 -1 -5 1 -5 -1 -10 0 -5 0 -5 0 -10 4 -5 4 -3 5 1 5 -1 5 1 16 -1 5 1 36 0 10 2 14 5 5 2 9 6 7 7 4 3 7 8 2 4 5 8 4 10 1 5 1 5 4 15 -1 16 0 4 -1 5 -1 5 -2 5 -1 5 -2 5 -2 4 -7 13 -10 11 -22 15 -14 4 -16 2 -45 1 -6 0 -5 0 -5 0 -6 0 -4 -3 -3 -5 1 -10zm73 -24l0 0 9 -2 5 -3 4 -2 3 -4 4 -4 3 -4 4 -9 1 -5 1 -12 0 -8 -3 -15 -4 -4 -2 -5 -7 -7 -8 -5 -10 -3 -8 -1 -5 1 -5 -1 -7 3 -3 5 0 64 -1 5 1 5 -1 5 3 5 6 2 20 -1z"/>
    <polygon class="fil0" points="1660,171 1660,166 1659,157 1659,152 1659,146 1660,141 1659,137 1660,131 1659,126 1660,116 1659,106 1660,101 1660,56 1659,51 1660,46 1659,33 1660,26 1659,16 1662,11 1669,9 1702,8 1706,9 1716,8 1721,9 1732,8 1737,9 1742,9 1762,9 1767,11 1769,16 1769,21 1768,26 1769,31 1770,41 1767,46 1762,49 1714,49 1706,51 1703,58 1704,66 1707,71 1711,73 1731,73 1737,74 1742,74 1747,73 1757,73 1761,76 1763,81 1764,86 1763,106 1761,111 1756,113 1751,114 1746,113 1739,114 1726,113 1721,113 1711,113 1707,116 1705,121 1704,134 1707,141 1712,144 1717,144 1723,144 1728,144 1761,144 1768,147 1771,152 1771,156 1771,172 1771,177 1768,181 1763,184 1758,184 1743,183 1728,184 1723,183 1667,184 1662,181 1659,176 "/>
   </g>
  </g>
 </g>
</svg>
