<?xml version="1.0" encoding="UTF-8"?>
<!DOCTYPE svg PUBLIC "-//W3C//DTD SVG 1.1//EN" "http://www.w3.org/Graphics/SVG/1.1/DTD/svg11.dtd">
<!-- Creator: CorelDRAW X7 -->
<svg xmlns="http://www.w3.org/2000/svg" xml:space="preserve" width="4.1421mm" height="4.1421mm" version="1.1" style="shape-rendering:geometricPrecision; text-rendering:geometricPrecision; image-rendering:optimizeQuality; fill-rule:evenodd; clip-rule:evenodd"
viewBox="0 0 383 383"
 xmlns:xlink="http://www.w3.org/1999/xlink">
 <defs>
  <style type="text/css">
   <![CDATA[
    .fil0 {fill:white}
   ]]>
  </style>
 </defs>
 <g id="Capa_x0020_1">
  <metadata id="CorelCorpID_0Corel-Layer"/>
  <path class="fil0" d="M191 0c106,0 192,86 192,191 0,106 -86,192 -192,192 -105,0 -191,-86 -191,-192 0,-105 86,-191 191,-191zm91 220l20 -87c1,-6 -3,-12 -10,-12l-164 0 -4 -19c-1,-5 -5,-8 -10,-8l-43 0c-5,0 -10,5 -10,10l0 7c0,5 5,10 10,10l30 0 29 143c-7,4 -12,12 -12,21 0,13 11,23 24,23 13,0 23,-10 23,-23 0,-7 -3,-13 -7,-17l88 0c-5,4 -7,10 -7,17 0,13 10,23 23,23 13,0 23,-10 23,-23 0,-10 -5,-18 -13,-21l3 -11c1,-6 -4,-12 -10,-12l-112 0 -3 -13 122 0c5,0 9,-3 10,-8l0 0z"/>
 </g>
</svg>
